REM DIRINDEX 1\2,1\3,1\4,1\5
REM DIRNAME folder01,folder02,folder03,folder04,folder05
TITLE ""
FILE "1800_115.mp3" MP3
  TRACK 01 AUDIO
    TITLE "2:cjc044_3281"
    INDEX 01 00:00:00
  TRACK 02 AUDIO
    TITLE "0:"
    INDEX 01 00:01:01
  TRACK 03 AUDIO
    TITLE "3:cjc044_3282"
    INDEX 01 00:01:56
  TRACK 04 AUDIO
    TITLE "0:"
    INDEX 01 00:03:04
  TRACK 05 AUDIO
    TITLE "4:cjc044_3283"
    INDEX 01 00:03:66
  TRACK 06 AUDIO
    TITLE "0:"
    INDEX 01 00:04:72
  TRACK 07 AUDIO
    TITLE "5:cjc044_3284"
    INDEX 01 00:05:61
  TRACK 08 AUDIO
    TITLE "0:"
    INDEX 01 00:08:52
  TRACK 09 AUDIO
    TITLE "2:cjc044_3285"
    INDEX 01 00:10:37
  TRACK 10 AUDIO
    TITLE "0:"
    INDEX 01 00:11:52
  TRACK 11 AUDIO
    TITLE "3:cjc044_3286"
    INDEX 01 00:12:34
  TRACK 12 AUDIO
    TITLE "0:"
    INDEX 01 00:14:19
  TRACK 13 AUDIO
    TITLE "4:cjc044_3287"
    INDEX 01 00:15:05
  TRACK 14 AUDIO
    TITLE "0:"
    INDEX 01 00:16:20
  TRACK 15 AUDIO
    TITLE "5:cjc044_3288"
    INDEX 01 00:17:00
  TRACK 16 AUDIO
    TITLE "0:"
    INDEX 01 00:20:22
  TRACK 17 AUDIO
    TITLE "2:cjc044_3289"
    INDEX 01 00:22:03
  TRACK 18 AUDIO
    TITLE "0:"
    INDEX 01 00:23:03
  TRACK 19 AUDIO
    TITLE "3:cjc044_3290"
    INDEX 01 00:23:53
  TRACK 20 AUDIO
    TITLE "0:"
    INDEX 01 00:24:72
  TRACK 21 AUDIO
    TITLE "4:cjc044_3291"
    INDEX 01 00:25:58
  TRACK 22 AUDIO
    TITLE "0:"
    INDEX 01 00:26:58
  TRACK 23 AUDIO
    TITLE "5:cjc044_3292"
    INDEX 01 00:27:34
  TRACK 24 AUDIO
    TITLE "0:"
    INDEX 01 00:31:22
  TRACK 25 AUDIO
    TITLE "2:cjc044_3293"
    INDEX 01 00:33:09
  TRACK 26 AUDIO
    TITLE "0:"
    INDEX 01 00:34:18
  TRACK 27 AUDIO
    TITLE "3:cjc044_3294"
    INDEX 01 00:35:02
  TRACK 28 AUDIO
    TITLE "0:"
    INDEX 01 00:36:21
  TRACK 29 AUDIO
    TITLE "4:cjc044_3295"
    INDEX 01 00:37:07
  TRACK 30 AUDIO
    TITLE "0:"
    INDEX 01 00:38:18
  TRACK 31 AUDIO
    TITLE "5:cjc044_3296"
    INDEX 01 00:39:03
  TRACK 32 AUDIO
    TITLE "0:"
    INDEX 01 00:42:12
  TRACK 33 AUDIO
    TITLE "2:cjc044_3297"
    INDEX 01 00:44:03
  TRACK 34 AUDIO
    TITLE "0:"
    INDEX 01 00:45:12
  TRACK 35 AUDIO
    TITLE "3:cjc044_3298"
    INDEX 01 00:45:71
  TRACK 36 AUDIO
    TITLE "0:"
    INDEX 01 00:46:70
  TRACK 37 AUDIO
    TITLE "4:cjc044_3299"
    INDEX 01 00:47:52
  TRACK 38 AUDIO
    TITLE "0:"
    INDEX 01 00:48:63
  TRACK 39 AUDIO
    TITLE "5:cjc044_3300"
    INDEX 01 00:49:47
  TRACK 40 AUDIO
    TITLE "0:"
    INDEX 01 00:53:43
  TRACK 41 AUDIO
    TITLE "2:cjc044_3301"
    INDEX 01 00:55:20
  TRACK 42 AUDIO
    TITLE "0:"
    INDEX 01 00:56:31
  TRACK 43 AUDIO
    TITLE "3:cjc044_3302"
    INDEX 01 00:57:07
  TRACK 44 AUDIO
    TITLE "0:"
    INDEX 01 00:58:46
  TRACK 45 AUDIO
    TITLE "4:cjc044_3303"
    INDEX 01 00:59:24
  TRACK 46 AUDIO
    TITLE "0:"
    INDEX 01 01:00:37
  TRACK 47 AUDIO
    TITLE "5:cjc044_3304"
    INDEX 01 01:01:15
  TRACK 48 AUDIO
    TITLE "0:"
    INDEX 01 01:04:56
  TRACK 49 AUDIO
    TITLE "2:cjc044_3305"
    INDEX 01 01:06:34
  TRACK 50 AUDIO
    TITLE "0:"
    INDEX 01 01:07:31
  TRACK 51 AUDIO
    TITLE "3:cjc044_3306"
    INDEX 01 01:08:13
  TRACK 52 AUDIO
    TITLE "0:"
    INDEX 01 01:09:22
  TRACK 53 AUDIO
    TITLE "4:cjc044_3307"
    INDEX 01 01:10:02
  TRACK 54 AUDIO
    TITLE "0:"
    INDEX 01 01:10:73
  TRACK 55 AUDIO
    TITLE "5:cjc044_3308"
    INDEX 01 01:11:54
  TRACK 56 AUDIO
    TITLE "0:"
    INDEX 01 01:16:12
  TRACK 57 AUDIO
    TITLE "2:cjc044_3309"
    INDEX 01 01:17:71
  TRACK 58 AUDIO
    TITLE "0:"
    INDEX 01 01:19:01
  TRACK 59 AUDIO
    TITLE "3:cjc044_3310"
    INDEX 01 01:19:52
  TRACK 60 AUDIO
    TITLE "0:"
    INDEX 01 01:20:69
  TRACK 61 AUDIO
    TITLE "4:cjc044_3311"
    INDEX 01 01:21:55
  TRACK 62 AUDIO
    TITLE "0:"
    INDEX 01 01:22:60
  TRACK 63 AUDIO
    TITLE "5:cjc044_3312"
    INDEX 01 01:23:42
  TRACK 64 AUDIO
    TITLE "0:"
    INDEX 01 01:26:15
  TRACK 65 AUDIO
    TITLE "2:cjc044_3313"
    INDEX 01 01:28:04
  TRACK 66 AUDIO
    TITLE "0:"
    INDEX 01 01:29:15
  TRACK 67 AUDIO
    TITLE "3:cjc044_3314"
    INDEX 01 01:29:68
  TRACK 68 AUDIO
    TITLE "0:"
    INDEX 01 01:31:00
  TRACK 69 AUDIO
    TITLE "4:cjc044_3315"
    INDEX 01 01:31:55
  TRACK 70 AUDIO
    TITLE "0:"
    INDEX 01 01:32:66
  TRACK 71 AUDIO
    TITLE "5:cjc044_3316"
    INDEX 01 01:33:44
  TRACK 72 AUDIO
    TITLE "0:"
    INDEX 01 01:37:15
  TRACK 73 AUDIO
    TITLE "2:cjc044_3317"
    INDEX 01 01:38:69
  TRACK 74 AUDIO
    TITLE "0:"
    INDEX 01 01:39:74
  TRACK 75 AUDIO
    TITLE "3:cjc044_3318"
    INDEX 01 01:40:58
  TRACK 76 AUDIO
    TITLE "0:"
    INDEX 01 01:42:47
  TRACK 77 AUDIO
    TITLE "4:cjc044_3319"
    INDEX 01 01:43:33
  TRACK 78 AUDIO
    TITLE "0:"
    INDEX 01 01:44:40
  TRACK 79 AUDIO
    TITLE "5:cjc044_3320"
    INDEX 01 01:45:08
  TRACK 80 AUDIO
    TITLE "0:"
    INDEX 01 01:48:24
